<svg width="81" height="15" viewBox="0 0 81 15" fill="none" xmlns="http://www.w3.org/2000/svg">
<path d="M7.93785 10.1394C8.06212 9.73457 8.16378 9.32307 8.24236 8.90691C8.44905 7.79311 8.57231 6.6654 8.61114 5.53327C8.62127 5.34535 8.58786 5.15763 8.51346 4.98478C8.26175 4.39318 8.01969 3.79803 7.77325 3.20379C7.43735 2.45849 7.53105 1.58974 8.01815 0.93329C8.50521 0.276794 9.3094 -0.0644861 10.1198 0.0413539C10.9302 0.147146 11.6199 0.683499 11.9222 1.443C12.7841 3.51132 13.642 5.58142 14.4957 7.65324C14.9416 8.73084 15.3875 9.8084 15.8335 10.886C16.146 11.6285 16.0389 12.4813 15.5523 13.1233C15.0658 13.7653 14.2739 14.0989 13.4748 13.9984C12.6757 13.8979 11.991 13.3786 11.6784 12.6362C11.0773 11.2012 10.4867 9.76174 9.89087 8.32231C9.88204 8.30033 9.87148 8.27921 9.85391 8.24134C9.81518 8.50543 9.78436 8.76075 9.74298 9.00905C9.54321 10.1967 9.2061 11.3368 8.54865 12.3615C8.30577 12.7486 8.01508 13.1035 7.68349 13.418C7.14513 13.9156 6.39791 14.1191 5.6817 13.9632C4.96545 13.8073 4.37034 13.3117 4.08729 12.6353C2.79177 9.51876 1.50767 6.3978 0.214742 3.28126C-0.0615941 2.61569 -0.08977 1.96068 0.239366 1.31446C0.675062 0.464906 1.3941 0.0299784 2.34378 0.0652104C3.27935 0.100442 3.97026 0.575834 4.33372 1.44387C5.52278 4.28489 6.69335 7.13379 7.87185 9.9836C7.88769 10.0312 7.91058 10.0778 7.93785 10.1394Z" fill="black"/>
<path d="M19.3608 0.529137C19.3397 0.646209 19.3185 0.799425 19.2825 0.949953C19.2657 1.02128 19.2869 1.0459 19.3467 1.07494C20.0523 1.39203 20.5474 2.04728 20.6599 2.81283C20.8489 4.02464 20.0583 5.17299 18.8591 5.42845C18.6461 5.4716 18.4269 5.48216 18.2166 5.54293C17.4351 5.77007 16.9228 6.29211 16.5893 7.01403C16.5117 7.18338 16.4476 7.35853 16.3974 7.53786C16.3147 7.82749 16.1175 7.94638 15.8209 7.89003C15.7382 7.87328 15.6554 7.85922 15.5727 7.8416C15.4624 7.82063 15.3651 7.75602 15.303 7.66242C15.2409 7.56877 15.2191 7.45405 15.2427 7.34418C15.4028 6.48728 15.5633 5.63039 15.7241 4.77344C15.7364 4.70917 15.7558 4.67749 15.8306 4.6784C15.901 4.67787 15.9708 4.66597 16.0374 4.64317C16.19 4.60904 16.3035 4.48093 16.3191 4.32536C16.342 4.15103 16.3749 3.97823 16.4176 3.80768C16.4608 3.65341 16.3992 3.48891 16.2654 3.40093C16.2299 3.36661 16.1881 3.33968 16.1421 3.32173C16.0136 3.28914 16.0154 3.21517 16.0365 3.10424C16.114 2.68784 16.1941 2.27495 16.4379 1.91485C16.8354 1.29709 17.5052 0.907713 18.2386 0.868065C18.2639 0.871377 18.2893 0.863602 18.3084 0.846706C18.3274 0.82981 18.3383 0.805522 18.3381 0.780034C18.3592 0.65149 18.3821 0.523857 18.4076 0.396177C18.4544 0.147489 18.6841 -0.0236784 18.9357 0.00267355C19.1821 0.0237936 19.3669 0.238593 19.3608 0.529137Z" fill="black"/>
<path d="M32.0134 7.57984C32.0134 8.21494 31.9075 8.79819 31.6958 9.32945C31.4841 9.86072 31.1865 10.3181 30.8031 10.7016C30.4196 11.085 29.9582 11.3827 29.4189 11.5944C28.8796 11.8061 28.2824 11.9119 27.6273 11.9119H24.3198V3.24768H27.6273C28.2824 3.24768 28.8796 3.35554 29.4189 3.57127C29.9582 3.78297 30.4196 4.08053 30.8031 4.46402C31.1865 4.84349 31.4841 5.29889 31.6958 5.83015C31.9075 6.36148 32.0134 6.94467 32.0134 7.57984ZM30.3656 7.57984C30.3656 7.10445 30.3017 6.67903 30.1739 6.30353C30.0461 5.92406 29.8643 5.6045 29.6287 5.34484C29.3929 5.08121 29.1054 4.87944 28.7658 4.73965C28.4303 4.59986 28.0508 4.52996 27.6273 4.52996H25.9436V10.6296H27.6273C28.0508 10.6296 28.4303 10.5598 28.7658 10.42C29.1054 10.2802 29.3929 10.0804 29.6287 9.82081C29.8643 9.55712 30.0461 9.23756 30.1739 8.86205C30.3017 8.48258 30.3656 8.05516 30.3656 7.57984Z" fill="black"/>
<path d="M35.8126 5.6687C36.272 5.6687 36.6874 5.74256 37.0593 5.8904C37.4344 6.03817 37.7543 6.24793 38.0178 6.51953C38.2813 6.79113 38.4851 7.1227 38.6292 7.51418C38.7726 7.90565 38.8447 8.34307 38.8447 8.82637C38.8447 9.31377 38.7726 9.75314 38.6292 10.1446C38.4851 10.5361 38.2813 10.8697 38.0178 11.1453C37.7543 11.4209 37.4344 11.6326 37.0593 11.7804C36.6874 11.9282 36.272 12.0021 35.8126 12.0021C35.3537 12.0021 34.9358 11.9282 34.5606 11.7804C34.185 11.6326 33.8634 11.4209 33.5958 11.1453C33.3322 10.8697 33.1264 10.5361 32.9787 10.1446C32.8349 9.75314 32.7629 9.31377 32.7629 8.82637C32.7629 8.34307 32.8349 7.90565 32.9787 7.51418C33.1264 7.1227 33.3322 6.79113 33.5958 6.51953C33.8634 6.24793 34.185 6.03817 34.5606 5.8904C34.9358 5.74256 35.3537 5.6687 35.8126 5.6687ZM35.8126 10.8636C36.324 10.8636 36.7017 10.6919 36.9451 10.3483C37.193 10.0048 37.3169 9.50146 37.3169 8.83838C37.3169 8.17531 37.193 7.67 36.9451 7.32246C36.7017 6.97493 36.324 6.80113 35.8126 6.80113C35.2934 6.80113 34.9098 6.97687 34.6625 7.32843C34.4146 7.67597 34.2909 8.17926 34.2909 8.83838C34.2909 9.4975 34.4146 10.0008 34.6625 10.3483C34.9098 10.6919 35.2934 10.8636 35.8126 10.8636Z" fill="black"/>
<path d="M39.0352 3.24768H40.389C40.5291 3.24768 40.6447 3.28162 40.7368 3.34957C40.8329 3.41343 40.8965 3.50131 40.9283 3.61319L42.4021 8.79618C42.4385 8.92397 42.4703 9.06382 42.4982 9.21562C42.53 9.3634 42.5605 9.52117 42.5884 9.68893C42.6202 9.52117 42.6539 9.3634 42.6903 9.21562C42.7299 9.06382 42.7721 8.92397 42.8162 8.79618L44.5178 3.61319C44.5496 3.5213 44.6113 3.43745 44.7035 3.36151C44.7995 3.28565 44.915 3.24768 45.0507 3.24768H45.5244C45.664 3.24768 45.7801 3.28162 45.8716 3.34957C45.9638 3.41343 46.0274 3.50131 46.0637 3.61319L47.7531 8.79618C47.8413 9.05182 47.9173 9.33543 47.9809 9.64701C48.0088 9.49125 48.0367 9.3414 48.0646 9.19764C48.097 9.05383 48.1288 8.92001 48.1606 8.79618L49.6345 3.61319C49.6624 3.51331 49.7247 3.42745 49.8201 3.35554C49.9162 3.28364 50.0323 3.24768 50.168 3.24768H51.4322L48.7421 11.9119H47.2858L45.3927 5.99195C45.3687 5.91608 45.3427 5.83418 45.3148 5.7463C45.2908 5.65843 45.2668 5.56452 45.2428 5.4647C45.2188 5.56452 45.1928 5.65843 45.1649 5.7463C45.1409 5.83418 45.1169 5.91608 45.0929 5.99195L43.1816 11.9119H41.7252L39.0352 3.24768Z" fill="black"/>
<path d="M52.2991 11.912V3.00806H53.7794V6.42942C54.0189 6.20175 54.2824 6.01795 54.5705 5.87816C54.8581 5.73837 55.1955 5.66847 55.583 5.66847C55.9185 5.66847 56.2157 5.72636 56.476 5.84221C56.7356 5.95409 56.951 6.11388 57.123 6.32155C57.2983 6.52527 57.4307 6.77098 57.5183 7.05855C57.6104 7.34216 57.6559 7.65575 57.6559 7.99927V11.912H56.1762V7.99927C56.1762 7.62382 56.0885 7.33418 55.9127 7.13046C55.7407 6.92278 55.4811 6.81888 55.1332 6.81888C54.8782 6.81888 54.638 6.87683 54.4148 6.99268C54.1909 7.10852 53.9793 7.26629 53.7794 7.46599V11.912H52.2991Z" fill="black"/>
<path d="M60.6856 5.76417V11.9118H59.2059V5.76417H60.6856ZM60.9075 3.97256C60.9075 4.10042 60.8816 4.22028 60.8296 4.33211C60.7777 4.44393 60.7076 4.5418 60.62 4.62571C60.5363 4.70963 60.4363 4.77751 60.3202 4.82943C60.2047 4.87739 60.0807 4.90134 59.949 4.90134C59.8211 4.90134 59.6991 4.87739 59.5836 4.82943C59.4713 4.77751 59.3739 4.70963 59.2896 4.62571C59.2059 4.5418 59.1377 4.44393 59.0858 4.33211C59.0378 4.22028 59.0144 4.10042 59.0144 3.97256C59.0144 3.84075 59.0378 3.71693 59.0858 3.60108C59.1377 3.48524 59.2059 3.38542 59.2896 3.3015C59.3739 3.21759 59.4713 3.15172 59.5836 3.10376C59.6991 3.05184 59.8211 3.02588 59.949 3.02588C60.0807 3.02588 60.2047 3.05184 60.3202 3.10376C60.4363 3.15172 60.5363 3.21759 60.62 3.3015C60.7076 3.38542 60.7777 3.48524 60.8296 3.60108C60.8816 3.71693 60.9075 3.84075 60.9075 3.97256Z" fill="black"/>
<path d="M66.0128 6.96292C65.9726 7.02685 65.931 7.0728 65.8869 7.10077C65.8428 7.12471 65.787 7.13672 65.7195 7.13672C65.6474 7.13672 65.5696 7.11673 65.4852 7.07675C65.4054 7.03684 65.3119 6.9929 65.2042 6.94494C65.0958 6.89302 64.9725 6.84708 64.8323 6.80716C64.6967 6.76719 64.5351 6.7472 64.3469 6.7472C64.0555 6.7472 63.8257 6.80911 63.6583 6.93294C63.4902 7.05683 63.4065 7.21856 63.4065 7.41832C63.4065 7.55013 63.448 7.66195 63.5324 7.75385C63.62 7.84172 63.7336 7.9196 63.8737 7.98755C64.0172 8.05544 64.1794 8.11735 64.3592 8.17329C64.539 8.22521 64.7226 8.28317 64.9102 8.34703C65.0977 8.41095 65.282 8.48487 65.4618 8.56872C65.6416 8.64862 65.8012 8.75252 65.9408 8.88031C66.0849 9.00413 66.1984 9.15399 66.2821 9.32973C66.3704 9.50548 66.4145 9.71718 66.4145 9.96484C66.4145 10.2605 66.36 10.5341 66.2523 10.7857C66.1446 11.0334 65.9869 11.2491 65.7792 11.4329C65.5715 11.6126 65.3139 11.7544 65.0062 11.8583C64.7025 11.9582 64.3533 12.0081 63.9575 12.0081C63.7459 12.0081 63.5382 11.9881 63.3344 11.9482C63.1345 11.9122 62.9411 11.8603 62.7529 11.7924C62.5693 11.7245 62.3979 11.6446 62.2376 11.5527C62.0819 11.4608 61.9443 11.361 61.8242 11.2531L62.1662 10.6899C62.2097 10.6219 62.2616 10.57 62.322 10.5341C62.3817 10.4981 62.4576 10.4801 62.5498 10.4801C62.6413 10.4801 62.727 10.5061 62.8068 10.5581C62.8912 10.61 62.9866 10.6659 63.0949 10.7258C63.2027 10.7857 63.3286 10.8417 63.472 10.8936C63.62 10.9455 63.8056 10.9715 64.0295 10.9715C64.2054 10.9715 64.3553 10.9515 64.4786 10.9116C64.6065 10.8677 64.7103 10.8117 64.7901 10.7438C64.8745 10.6759 64.9342 10.598 64.9699 10.5101C65.0101 10.4182 65.0302 10.3244 65.0302 10.2285C65.0302 10.0847 64.9861 9.96685 64.8985 9.87495C64.8141 9.78312 64.7006 9.70323 64.5565 9.63528C64.4169 9.56739 64.2553 9.50749 64.0717 9.45557C63.8919 9.39963 63.7057 9.33973 63.5142 9.2758C63.3266 9.21188 63.1404 9.13796 62.9567 9.05411C62.7769 8.96623 62.6153 8.85636 62.4713 8.72455C62.3317 8.59274 62.2182 8.43094 62.1299 8.23917C62.0462 8.04745 62.004 7.81576 62.004 7.54416C62.004 7.29248 62.054 7.05281 62.1539 6.82514C62.2538 6.59741 62.3999 6.39966 62.5913 6.2319C62.7873 6.06017 63.0287 5.92434 63.3163 5.82446C63.6083 5.72062 63.9438 5.6687 64.3228 5.6687C64.7466 5.6687 65.1321 5.7386 65.4793 5.87839C65.8272 6.01818 66.1167 6.20198 66.3483 6.42964L66.0128 6.96292Z" fill="black"/>
<path d="M69.6141 12.008C69.0832 12.008 68.6737 11.8582 68.3856 11.5586C68.0981 11.255 67.9546 10.8376 67.9546 10.3063V6.87296H67.3316C67.2511 6.87296 67.1817 6.84701 67.1213 6.79509C67.0655 6.74317 67.0376 6.66529 67.0376 6.56138V5.97417L68.0267 5.81245L68.3382 4.13467C68.3538 4.05478 68.3901 3.99287 68.4459 3.94893C68.5056 3.90499 68.5796 3.88306 68.6672 3.88306H69.4343V5.81842H71.0523V6.87296H69.4343V10.2044C69.4343 10.3962 69.4824 10.546 69.5784 10.6539C69.6738 10.7617 69.8017 10.8157 69.962 10.8157C70.0535 10.8157 70.1294 10.8057 70.1891 10.7857C70.2534 10.7617 70.3072 10.7377 70.3514 10.7138C70.3994 10.6898 70.4409 10.6678 70.4773 10.6478C70.513 10.6239 70.5487 10.6119 70.585 10.6119C70.6291 10.6119 70.6648 10.6239 70.6927 10.6478C70.7206 10.6678 70.7505 10.6998 70.7829 10.7438L71.2262 11.4628C71.0101 11.6425 70.7628 11.7783 70.4831 11.8702C70.2034 11.9621 69.9139 12.008 69.6141 12.008Z" fill="black"/>
<path d="M73.8056 3.00806V11.912H72.3252V3.00806H73.8056Z" fill="black"/>
<path d="M78.0236 5.6687C78.4111 5.6687 78.7667 5.73062 79.0906 5.85444C79.4177 5.97827 79.6993 6.15999 79.9349 6.39966C80.1711 6.63538 80.3548 6.92697 80.4866 7.2745C80.6183 7.61801 80.6839 8.0115 80.6839 8.45489C80.6839 8.56678 80.678 8.66062 80.6663 8.73655C80.6579 8.8084 80.6404 8.86635 80.6125 8.91029C80.5885 8.9502 80.5541 8.98018 80.5106 9.00017C80.4664 9.01614 80.4106 9.02412 80.3425 9.02412H76.5439C76.5874 9.65527 76.7575 10.1186 77.0534 10.4143C77.3487 10.7099 77.74 10.8577 78.2274 10.8577C78.4669 10.8577 78.6726 10.8297 78.8446 10.7737C79.0205 10.7179 79.1724 10.6559 79.3002 10.588C79.432 10.5201 79.5455 10.4582 79.6416 10.4023C79.7415 10.3463 79.8376 10.3184 79.9291 10.3184C79.9894 10.3184 80.0414 10.3303 80.0848 10.3544C80.129 10.3783 80.1666 10.4123 80.1991 10.4562L80.63 10.9954C80.4664 11.1872 80.2828 11.349 80.079 11.4808C79.8752 11.6086 79.6617 11.7125 79.4378 11.7924C79.2184 11.8683 78.9926 11.9222 78.7609 11.9542C78.5331 11.9861 78.3111 12.0021 78.0957 12.0021C77.668 12.0021 77.2708 11.9322 76.9035 11.7924C76.5355 11.6486 76.2162 11.4388 75.9449 11.1633C75.673 10.8836 75.4595 10.5401 75.3037 10.1326C75.1479 9.7212 75.0701 9.24582 75.0701 8.70657C75.0701 8.28713 75.1376 7.89364 75.2732 7.52618C75.4095 7.15463 75.6029 6.83312 75.8547 6.56145C76.1104 6.28583 76.42 6.06816 76.7834 5.90837C77.1507 5.74859 77.5641 5.6687 78.0236 5.6687ZM78.0535 6.72922C77.6226 6.72922 77.2851 6.8511 77.0411 7.09473C76.7977 7.33843 76.6419 7.68395 76.5738 8.13137H79.3541C79.3541 7.93959 79.3281 7.75982 79.2762 7.59205C79.2243 7.42033 79.1444 7.27048 79.0367 7.14269C78.9283 7.01484 78.7927 6.91496 78.6291 6.84312C78.4649 6.76718 78.2735 6.72922 78.0535 6.72922Z" fill="black"/>
</svg>
